<svg xmlns="http://www.w3.org/2000/svg" viewBox="0 0 512 512">
  <path d="M0 58.667V112c17.673 0 32 14.327 32 32v21.333h64V144c0-17.673 14.327-32 32-32s32 14.327 32 32v21.333h64V144c0-17.673 14.328-32 32-32 17.673 0 32 14.327 32 32v21.333h64V144c0-17.673 14.328-32 32-32 17.673 0 32 14.327 32 32v21.333h64V144c0-17.673 14.328-32 32-32V58.667H0zM0 421.333h512v32H0zM0 197.333v53.333c17.673 0 32 14.327 32 32v106.667h64V282.667c0-17.673 14.327-32 32-32s32 14.327 32 32v106.667h64V282.667c0-17.673 14.328-32 32-32 17.673 0 32 14.327 32 32v106.667h64V282.667c0-17.673 14.328-32 32-32 17.673 0 32 14.327 32 32v106.667h64V282.667c0-17.673 14.328-32 32-32v-53.333H0z"/>
</svg>
